<?xml version="1.0" encoding="UTF-8" standalone="no"?>
<svg width="24px" height="20px" viewBox="0 0 24 20" version="1.1" xmlns="http://www.w3.org/2000/svg" xmlns:xlink="http://www.w3.org/1999/xlink">
    <!-- Generator: Sketch 41.1 (35376) - http://www.bohemiancoding.com/sketch -->
    <title>地点icon</title>
    <desc>Created with Sketch.</desc>
    <defs>
        <polygon id="path-1" points="21.156 18.8746 21.156 0 7 0 7 18.8746 21.156 18.8746"></polygon>
    </defs>
    <g id="WEB-DESIGN-ABOUT-INUIST-ACTIVITY" stroke="none" stroke-width="1" fill="none" fill-rule="evenodd">
        <g id="首页" transform="translate(-387.000000, -2261.000000)">
            <g id="活动分类" transform="translate(0.000000, 1779.000000)">
                <g id="文本1" transform="translate(387.000000, 410.000000)">
                    <g id="地点icon" transform="translate(0.000000, 72.000000)">
                        <mask id="mask-2" fill="white">
                            <use xlink:href="#path-1"></use>
                        </mask>
                        <g id="Clip-2"></g>
                        <path d="M14.0779,9.4226 C12.7769,9.4226 11.7189,8.3606 11.7189,7.0636 C11.7189,5.7616 12.7769,4.7036 14.0779,4.7036 C15.3789,4.7036 16.4369,5.7616 16.4369,7.0636 C16.4369,8.3606 15.3799,9.4226 14.0779,9.4226 L14.0779,9.4226 Z M14.0779,-0.0004 C10.1729,-0.0004 6.9999,3.1696 6.9999,7.0626 C6.9999,8.3446 7.3509,9.5756 7.9799,10.6406 C8.6809,11.8266 13.7289,18.6626 13.7289,18.6626 C13.7949,18.7926 13.9329,18.8746 14.0789,18.8746 C14.2249,18.8746 14.3579,18.7926 14.4289,18.6626 C14.4289,18.6626 19.4769,11.8246 20.1759,10.6396 C20.8049,9.5736 21.1569,8.3416 21.1569,7.0626 C21.1569,3.1696 17.9779,-0.0004 14.0779,-0.0004 L14.0779,-0.0004 Z" id="Fill-1" fill="#5A5A5A" mask="url(#mask-2)"></path>
                    </g>
                </g>
            </g>
        </g>
    </g>
</svg>