<?xml version="1.0" encoding="UTF-8" standalone="no"?>
<svg width="19px" height="18px" viewBox="0 0 19 18" version="1.1" xmlns="http://www.w3.org/2000/svg" xmlns:xlink="http://www.w3.org/1999/xlink">
    <!-- Generator: Sketch 41.1 (35376) - http://www.bohemiancoding.com/sketch -->
    <title>日历icon</title>
    <desc>Created with Sketch.</desc>
    <defs>
        <polygon id="path-1" points="2.55675306 0.269 0.7291 0.269 0.7291 3.92620711 2.55675306 3.92620711 2.55675306 0.269"></polygon>
        <polygon id="path-3" points="0 18.7313 18.423 18.7313 18.423 1.0003 0 1.0003"></polygon>
    </defs>
    <g id="WEB-DESIGN-ABOUT-INUIST-ACTIVITY" stroke="none" stroke-width="1" fill="none" fill-rule="evenodd">
        <g id="首页" transform="translate(-381.000000, -1006.000000)">
            <g id="背景" transform="translate(0.000000, -5.000000)" fill="#F8F8F8">
                <rect id="1920背景区" x="0" y="0" width="1920" height="3144"></rect>
                <rect id="内容区背景" x="370" y="4.54747351e-13" width="1180" height="3144"></rect>
            </g>
            <g id="页签下内容" transform="translate(240.000000, 838.000000)">
                <rect id="滚图文本" fill="#FFFFFF" x="130" y="120" width="280" height="120"></rect>
                <g id="文本组" transform="translate(139.000000, 128.000000)">
                    <g id="文本">
                        <g id="calendar" transform="translate(2.000000, 39.000000)">
                            <g id="日历icon">
                                <g id="Group-3" transform="translate(3.000000, 0.731300)">
                                    <mask id="mask-2" fill="white">
                                        <use xlink:href="#path-1"></use>
                                    </mask>
                                    <g id="Clip-2"></g>
                                    <path d="M1.6451,3.9262 C2.1521,3.9242 2.5461,3.5202 2.5531,2.9872 C2.5571,2.6942 2.5541,2.4012 2.5541,2.1082 L2.5561,2.1082 L2.5561,2.0932 C2.5561,1.7982 2.5581,1.5042 2.5551,1.2092 C2.5521,0.9652 2.4821,0.7442 2.3121,0.5632 C2.0441,0.2792 1.6751,0.1962 1.3151,0.3332 C0.9631,0.4672 0.7381,0.7822 0.7341,1.1752 C0.7301,1.4812 0.7291,1.7872 0.7291,2.0932 C0.7291,2.3872 0.7301,2.6802 0.7311,2.9732 C0.7321,3.5082 1.1361,3.9282 1.6451,3.9262" id="Fill-1" fill="#5A5A5A" mask="url(#mask-2)"></path>
                                </g>
                                <path d="M13.8447,4.6746 C14.3517,4.6726 14.7457,4.2686 14.7527,3.7356 C14.7567,3.4426 14.7537,3.1496 14.7537,2.8566 L14.7557,2.8566 L14.7557,2.8416 C14.7557,2.5466 14.7577,2.2526 14.7547,1.9576 C14.7517,1.7136 14.6817,1.4926 14.5117,1.3116 C14.2437,1.0276 13.8757,0.9446 13.5147,1.0816 C13.1627,1.2156 12.9377,1.5306 12.9337,1.9236 C12.9297,2.2296 12.9287,2.5356 12.9287,2.8416 C12.9287,3.1356 12.9297,3.4286 12.9307,3.7216 C12.9317,4.2566 13.3357,4.6766 13.8447,4.6746" id="Fill-4" fill="#5A5A5A"></path>
                                <mask id="mask-4" fill="white">
                                    <use xlink:href="#path-3"></use>
                                </mask>
                                <g id="Clip-7"></g>
                                <polygon id="Fill-6" fill="#5A5A5A" mask="url(#mask-4)" points="9.873 13.2253 12.289 13.2253 12.289 11.4263 9.873 11.4263"></polygon>
                                <polygon id="Fill-8" fill="#5A5A5A" mask="url(#mask-4)" points="13.549 10.7753 15.961 10.7753 15.961 8.9733 13.549 8.9733"></polygon>
                                <polygon id="Fill-9" fill="#5A5A5A" mask="url(#mask-4)" points="13.551 13.2253 15.96 13.2253 15.96 11.4193 13.551 11.4193"></polygon>
                                <polygon id="Fill-10" fill="#5A5A5A" mask="url(#mask-4)" points="6.197 15.6823 8.609 15.6823 8.609 13.8803 6.197 13.8803"></polygon>
                                <polygon id="Fill-11" fill="#5A5A5A" mask="url(#mask-4)" points="9.875 15.6753 12.287 15.6753 12.287 13.8763 9.875 13.8763"></polygon>
                                <polygon id="Fill-12" fill="#5A5A5A" mask="url(#mask-4)" points="13.552 15.6763 15.965 15.6763 15.965 13.8783 13.552 13.8783"></polygon>
                                <polygon id="Fill-13" fill="#5A5A5A" mask="url(#mask-4)" points="2.514 15.6813 4.93 15.6813 4.93 13.8823 2.514 13.8823"></polygon>
                                <polygon id="Fill-14" fill="#5A5A5A" mask="url(#mask-4)" points="2.52 13.2303 4.931 13.2303 4.931 11.4283 2.52 11.4283"></polygon>
                                <polygon id="Fill-15" fill="#5A5A5A" mask="url(#mask-4)" points="9.87 10.7773 12.286 10.7773 12.286 8.9783 9.87 8.9783"></polygon>
                                <polygon id="Fill-16" fill="#5A5A5A" mask="url(#mask-4)" points="6.192 13.2293 8.607 13.2293 8.607 11.4303 6.192 11.4303"></polygon>
                                <polygon id="Fill-17" fill="#5A5A5A" mask="url(#mask-4)" points="6.198 10.7783 8.61 10.7783 8.61 8.9773 6.198 8.9773"></polygon>
                                <path d="M17.3461,17.5388 L1.1551,17.5388 L1.1551,17.0388 L1.1551,16.4648 L1.1551,7.6228 L17.3311,7.6228 L17.3311,16.4648 L17.3461,16.4648 L17.3461,17.5388 Z M18.0651,2.8248 L15.7971,2.8248 C15.7961,2.9328 15.7961,3.0408 15.7941,3.1488 C15.7791,4.2508 14.9971,5.0988 13.9671,5.1688 C13.9201,5.1748 13.8731,5.1778 13.8241,5.1778 C13.7641,5.1778 13.7061,5.1738 13.6481,5.1658 C12.6401,5.0728 11.8651,4.2058 11.8631,3.1178 L11.8631,2.8248 L6.5661,2.8248 C6.5661,2.9328 6.5651,3.0408 6.5631,3.1488 C6.5471,4.2978 5.6981,5.1708 4.6041,5.1738 C3.5071,5.1778 2.6351,4.2718 2.6321,3.1178 L2.6321,2.8248 L0.3581,2.8248 C0.1601,2.8248 0.0001,2.9848 0.0001,3.1828 L0.0001,18.3738 C0.0001,18.5708 0.1601,18.7318 0.3581,18.7318 L18.0651,18.7318 C18.2631,18.7318 18.4231,18.5708 18.4231,18.3738 L18.4231,3.1828 C18.4231,2.9848 18.2631,2.8248 18.0651,2.8248 L18.0651,2.8248 Z" id="Fill-18" fill="#5A5A5A" mask="url(#mask-4)"></path>
                            </g>
                        </g>
                    </g>
                </g>
            </g>
        </g>
    </g>
</svg>