<?xml version="1.0" encoding="UTF-8" standalone="no"?>
<svg width="16px" height="16px" viewBox="0 0 16 16" version="1.1" xmlns="http://www.w3.org/2000/svg" xmlns:xlink="http://www.w3.org/1999/xlink">
    <!-- Generator: Sketch 41.1 (35376) - http://www.bohemiancoding.com/sketch -->
    <title>代办主办项目</title>
    <desc>Created with Sketch.</desc>
    <defs></defs>
    <g id="WEB-DESIGN-ABOUT-INUIST-ACTIVITY" stroke="none" stroke-width="1" fill="none" fill-rule="evenodd">
        <g id="首页" transform="translate(-518.000000, -1041.000000)">
            <g id="背景" transform="translate(0.000000, -5.000000)" fill="#F8F8F8">
                <rect id="1920背景区" x="0" y="0" width="1920" height="3144"></rect>
                <rect id="内容区背景" x="370" y="4.54747351e-13" width="1180" height="3144"></rect>
            </g>
            <g id="页签下内容" transform="translate(240.000000, 838.000000)">
                <rect id="滚图文本" fill="#FFFFFF" x="130" y="120" width="280" height="120"></rect>
                <g id="文本组" transform="translate(139.000000, 128.000000)" fill="#272636">
                    <g id="文本">
                        <g id="zhubanfang" transform="translate(139.000000, 75.000000)">
                            <g id="代办主办项目">
                                <g id="Group" transform="translate(0.052312, 0.036050)">
                                    <path d="M15.0498053,5.16412287 L7.53167405,0.0174772925 L0.0134897913,5.16412287 L7.53167405,10.3106412 L15.0498053,5.16412287 Z M7.53167405,11.4589629 L0.895525615,7.08385059 L0.0134897913,7.99915354 L7.53167405,13.1457443 L15.0498053,7.99915531 L14.1560788,7.06436226 L7.53167405,11.4589629 Z M7.53167405,14.2940696 L0.895525615,9.91890246 L0.0134897913,10.8342054 L7.53167405,15.9807962 L15.0498053,10.8341524 L14.1560788,9.89941413 L7.53167405,14.2940696 Z" id="Shape"></path>
                                </g>
                            </g>
                        </g>
                    </g>
                </g>
            </g>
        </g>
    </g>
</svg>